<svg width="1105" height="865">
    <rect width="1105" height="865" style="fill:black"/>
    <rect x="5" y="5" width="1090" height="850" style="stroke-width:3;stroke:rgb(100,100,100)"/>
    <style>
        .col_up { fill:white }
        .col_down { fill:orange }
        .col_front { fill:yellow }
        .col_back { fill:green }
        .col_left { fill:red }
        .col_right { fill: blue }
        </style>
   
    <g id="checkerboard" transform="translate(50,120)">
        <g transform="translate(0,0)">
            <rect width="300" height="300" class="col_up"/>
            <path d="M0,100h300v100h-300z M100,0h100v300h-100z" class="col_down" fill-rule="evenodd"/>
            <text x="147" y="167" font-size="50" font-weight="bold" style="text-anchor:middle" fill="black">U</text>
        </g>
        <g transform="translate(350,0)">
            <rect width="300" height="300" class="col_front"/>
            <path d="M0,100h300v100h-300z M100,0h100v300h-100z" class="col_back" fill-rule="evenodd"/>
            <text x="147" y="167" font-size="50" font-weight="bold" style="text-anchor:middle" fill="black">F</text>
        </g>
        <g transform="translate(700,0)">
            <rect width="300" height="300" class="col_left"/>
            <path d="M0,100h300v100h-300z M100,0h100v300h-100z" class="col_right" fill-rule="evenodd"/>
            <text x="147" y="167" font-size="50" font-weight="bold" style="text-anchor:middle" fill="black">L</text>
        </g>

        <g transform="translate(0,350)">
            <rect width="300" height="300" class="col_down"/>
            <path d="M0,100h300v100h-300z M100,0h100v300h-100z" class="col_up" fill-rule="evenodd"/>
            <text x="147" y="167" font-size="50" font-weight="bold" style="text-anchor:middle" fill="black">D</text>
        </g>
        <g transform="translate(350,350)">
            <rect width="300" height="300" class="col_back"/>
            <path d="M0,100h300v100h-300z M100,0h100v300h-100z" class="col_front" fill-rule="evenodd"/>
            <text x="147" y="167" font-size="50" font-weight="bold" style="text-anchor:middle" fill="black">B</text>
        </g>
        <g transform="translate(700,350)">
            <rect width="300" height="300" class="col_right"/>
            <path d="M0,100h300v100h-300z M100,0h100v300h-100z" class="col_left" fill-rule="evenodd"/>
            <text x="147" y="167" font-size="50" font-weight="bold" style="text-anchor:middle" fill="black">R</text>
        </g>
    </g>


    <text id="label" x="550" y="90" font-size="70" font-weight="bold" style="text-anchor:middle" fill="white">(20) WOYGRB</text>
</svg>
